HIERARCHY
ROOT Hips
{
	OFFSET 0.00000 0.00000 0.00000
	CHANNELS 6 Xposition Yposition Zposition Zrotation Yrotation Xrotation 
	JOINT LHipJoint
	{
		OFFSET 0 0 0
		CHANNELS 3 Zrotation Yrotation Xrotation
		JOINT LeftHip
		{
			OFFSET 1.64549 -1.70879 0.84566
			CHANNELS 3 Zrotation Yrotation Xrotation
			JOINT LeftKnee
			{
				OFFSET 2.24963 -6.18082 0.00000
				CHANNELS 3 Zrotation Yrotation Xrotation
				JOINT LeftAnkle
				{
					OFFSET 2.71775 -7.46697 0.00000
					CHANNELS 3 Zrotation Yrotation Xrotation
					JOINT LeftToe
					{
						OFFSET 0.18768 -0.51564 2.24737
						CHANNELS 3 Zrotation Yrotation Xrotation
						End Site
						{
							OFFSET 0.00000 -0.00000 1.15935
						}
					}
				}
			}
		}
	}
	JOINT RHipJoint
	{
		OFFSET 0 0 0
		CHANNELS 3 Zrotation Yrotation Xrotation
		JOINT RightHip
		{
			OFFSET -1.58830 -1.70879 0.84566
			CHANNELS 3 Zrotation Yrotation Xrotation
			JOINT RightKnee
			{
				OFFSET -2.25006 -6.18201 0.00000
				CHANNELS 3 Zrotation Yrotation Xrotation
				JOINT RightAnkle
				{
					OFFSET -2.72829 -7.49593 0.00000
					CHANNELS 3 Zrotation Yrotation Xrotation
					JOINT RightToe
					{
						OFFSET -0.21541 -0.59185 2.10643
						CHANNELS 3 Zrotation Yrotation Xrotation
						End Site
						{
							OFFSET -0.00000 -0.00000 1.09838
						}
					}
				}
			}
		}
	}
	JOINT lowerback
	{
		OFFSET 0 0 0
		CHANNELS 3 Zrotation Yrotation Xrotation
		JOINT Chest
		{
			OFFSET 0.03142 2.10496 -0.11038
			CHANNELS 3 Zrotation Yrotation Xrotation
			JOINT Chest2
			{
				OFFSET -0.01863 2.10897 -0.06956
				CHANNELS 3 Zrotation Yrotation Xrotation
				JOINT lowerneck
				{
					OFFSET 0 0 0
					CHANNELS 3 Zrotation Yrotation Xrotation
					JOINT Neck
					{
						OFFSET -0.02267 1.73238 0.00451
						CHANNELS 3 Zrotation Yrotation Xrotation
						JOINT Head
						{
							OFFSET -0.05808 1.54724 -0.61749
							CHANNELS 3 Zrotation Yrotation Xrotation
							End Site
							{
								OFFSET -0.01396 1.71468 -0.21082
							}
						}
					}
				}
				JOINT LeftCollar
				{
					OFFSET 0 0 0
					CHANNELS 3 Zrotation Yrotation Xrotation
					JOINT LeftShoulder
					{
						OFFSET 3.44898 0.50298 0.21920
CHANNELS 3 Zrotation Xrotation Yrotation
						JOINT LeftElbow
						{
OFFSET 0 -5.419170 -0.000000
CHANNELS 3 Zrotation Xrotation Yrotation
							JOINT LeftWrist
							{
OFFSET 0 -2.443730 0.000000
CHANNELS 3 Zrotation Xrotation Yrotation
								JOINT lhand
								{
									OFFSET 0 0 0
CHANNELS 3 Zrotation Xrotation Yrotation
									JOINT LFingers
									{
OFFSET 0 -0.727500 0.000000
CHANNELS 3 Zrotation Xrotation Yrotation
										End Site
										{
OFFSET 0 -0.586530 0.000000
										}
									}
								}
								JOINT LThumb
								{
OFFSET 0 0.000000 0.000000
CHANNELS 3 Zrotation Xrotation Yrotation
									End Site
									{
OFFSET 0 -0.595490 0.595490
									}
								}
							}
						}
					}
				}
				JOINT RightCollar
				{
					OFFSET 0 0 0
					CHANNELS 3 Zrotation Yrotation Xrotation
					JOINT RightShoulder
					{
						OFFSET -3.23015 0.55830 0.31051
CHANNELS 3 Zrotation Xrotation Yrotation
						JOINT RightElbow
						{
OFFSET 0 -5.589760 0.000140
CHANNELS 3 Zrotation Xrotation Yrotation
							JOINT RightWrist
							{
OFFSET 0 -2.480600 0.000000
CHANNELS 3 Zrotation Xrotation Yrotation
								JOINT rhand
								{
									OFFSET 0 0 0
CHANNELS 3 Zrotation Xrotation Yrotation
									JOINT RFingers
									{
OFFSET 0 -0.816010 0.000000
CHANNELS 3 Zrotation Xrotation Yrotation
										End Site
										{
OFFSET 0 -0.657890 0.000000
										}
									}
								}
								JOINT RThumb
								{
OFFSET 0 0.000000 0.000000
CHANNELS 3 Zrotation Xrotation Yrotation
									End Site
									{
OFFSET 0 -0.667930 0.667930
									}
								}
							}
						}
					}
				}
			}
		}
	}
}
MOTION
Frames: 9
Frame Time: 0.008333333333333333
-0.298320 14.922588 1.878292 -180.491072 -7.562917 -158.132933 0.000000 0.000000 0.000000 3.351160 -29.167803 -75.455945 18.205710 19.918720 84.746374 1.688691 10.014850 -29.919674 0.161121 -2.585291 -7.126312 0.000000 0.000000 0.000000 32.506255 24.205916 -23.751628 -8.793821 -16.668097 55.366468 -5.400947 -8.182824 -47.060758 -0.864189 -5.924819 16.567267 5.093853 -0.995189 0.256961 -1.814327 -1.631530 -6.470789 -4.637835 -1.341227 -7.111370 -3.160072 -0.332215 -23.386925 0.524962 -0.359871 28.885623 0.595509 -0.783877 13.719887 0.000000 0.000000 0.000000 12.497895 24.987891 -15.311019 23.737428 -34.864326 7.564819 -1.880117 -55.249244 -18.769347 0.000000 0.000000 0.000000 -7.125000 0.000000 0.000000 -28.161158 46.618324 1.200327 0.000000 0.000000 0.000000 -9.587365 -4.614675 40.628705 -51.639883 -53.577675 -27.504334 -0.091925 -44.392716 -3.763523 0.000000 0.000000 0.000000 7.125000 0.000000 0.000000 19.812604 26.074887 9.640951
-0.290109 15.030253 1.628173 -181.242846 -7.496879 -157.739080 0.000000 0.000000 0.000000 3.944152 -30.536935 -76.753687 17.459859 19.840044 82.552874 1.554142 8.896922 -28.235996 0.141547 -2.422010 -6.673569 0.000000 0.000000 0.000000 32.286815 24.558960 -21.670338 -8.213509 -16.270017 53.321597 -5.064235 -8.910280 -46.029207 -0.931680 -6.148477 17.215839 4.083953 -0.656176 -0.041750 -2.172338 -1.341259 -7.058399 -4.464444 -1.211071 -7.513867 -3.189638 -0.587729 -22.648245 0.969880 -1.013524 29.324802 0.651579 -1.049515 13.767738 0.000000 0.000000 0.000000 12.396834 28.143263 -16.609199 25.706597 -36.896941 8.719113 -3.973592 -57.686479 -17.893694 0.000000 0.000000 0.000000 -7.125000 0.000000 0.000000 -29.531726 45.578031 0.455816 0.000000 0.000000 0.000000 -9.930964 -4.610626 40.927702 -56.758965 -55.329082 -31.671145 0.778255 -47.877215 -3.839589 0.000000 0.000000 0.000000 7.125000 0.000000 0.000000 20.423487 25.990337 10.023395
-0.282702 15.145830 1.371307 -182.416022 -7.269172 -157.531775 0.000000 0.000000 0.000000 3.711289 -31.843420 -77.488747 16.645457 19.724582 80.147562 1.415346 7.658525 -26.404298 0.132987 -2.342381 -6.453234 0.000000 0.000000 0.000000 31.698826 24.794629 -19.307840 -7.672707 -15.870423 51.370508 -4.745379 -9.804025 -45.134484 -0.946902 -6.197230 17.357678 2.565573 -0.314148 -0.092488 -2.671398 -1.069466 -7.594755 -4.148237 -1.060564 -8.005969 -3.188893 -0.898026 -21.860084 1.411320 -1.763997 29.684972 0.685753 -1.354597 13.778620 0.000000 0.000000 0.000000 12.483207 31.298930 -18.120106 27.804257 -38.919836 10.006351 -5.556481 -59.850585 -17.547232 0.000000 0.000000 0.000000 -7.125000 0.000000 0.000000 -30.699423 45.079146 0.065052 0.000000 0.000000 0.000000 -10.310339 -4.424685 40.982670 -62.221124 -56.842852 -36.201480 1.772511 -51.106757 -4.070257 0.000000 0.000000 0.000000 7.125000 0.000000 0.000000 21.095956 25.752481 10.515783
-0.277382 15.263050 1.109487 -183.060417 -7.234523 -157.343187 0.000000 0.000000 0.000000 3.965862 -32.913499 -78.276291 15.815994 19.573622 77.682268 1.266248 6.458139 -24.486593 0.192982 -2.817431 -7.771655 0.000000 0.000000 0.000000 31.601226 24.926137 -17.114164 -7.162510 -15.466354 49.484782 -4.433589 -10.326283 -44.087364 -0.939822 -6.174516 17.291720 1.495829 0.018842 -0.731239 -2.934869 -0.742987 -7.770263 -3.844807 -0.861642 -7.780074 -3.391127 -1.292999 -21.316453 2.050787 -2.553467 29.717267 0.832569 -1.647239 13.712227 0.000000 0.000000 0.000000 12.432378 33.786216 -19.422929 30.008256 -40.894565 11.417103 -6.760599 -61.817459 -17.462988 0.000000 0.000000 0.000000 -7.125000 0.000000 0.000000 -31.662132 44.858420 -0.124171 0.000000 0.000000 0.000000 -10.831126 -4.722336 40.674843 -67.536275 -57.996089 -40.677619 3.971802 -53.724212 -2.817898 0.000000 0.000000 0.000000 7.125000 0.000000 0.000000 22.887652 26.865542 10.910716
-0.238891 15.375635 0.855797 -183.009679 -5.852615 -156.595240 0.000000 0.000000 0.000000 4.714509 -32.240785 -79.709374 14.977506 19.382742 75.168030 1.140891 5.184093 -22.668077 0.341434 -3.745497 -10.362700 0.000000 0.000000 0.000000 31.479805 26.177176 -15.615296 -6.716541 -15.087569 47.792148 -3.960414 -10.263736 -42.012096 -0.876399 -5.967978 16.691526 -0.043192 0.784197 -2.480822 -2.897603 0.214560 -7.739995 -2.975352 -0.294340 -6.658067 -3.755478 -1.675371 -21.402183 2.724727 -3.191715 29.689886 1.048818 -1.863050 13.762178 0.000000 0.000000 0.000000 12.001544 35.331535 -20.212165 32.269329 -42.754984 12.925418 -7.809998 -63.274161 -17.253213 0.000000 0.000000 0.000000 -7.125000 0.000000 0.000000 -32.424513 44.549969 -0.405592 0.000000 0.000000 0.000000 -11.608990 -5.847317 40.338399 -72.447353 -58.794686 -44.861396 5.294574 -56.464758 -2.745640 0.000000 0.000000 0.000000 7.125000 0.000000 0.000000 23.835838 26.890211 11.430692
-0.227013 15.509235 0.599998 -183.741896 -5.152080 -156.587247 0.000000 0.000000 0.000000 4.066818 -32.600354 -79.836829 14.062833 19.128253 72.392456 0.960199 4.335276 -20.546440 0.524288 -4.623016 -12.839425 0.000000 0.000000 0.000000 30.737132 25.764294 -13.960325 -6.330532 -14.739372 46.290994 -3.583709 -9.474541 -39.874842 -0.889731 -6.012391 16.820331 -1.544322 1.254544 -2.860598 -3.121916 0.770081 -7.850253 -2.382244 0.045053 -6.555524 -4.112688 -2.009710 -21.315500 3.316232 -3.834587 30.043029 1.226933 -2.120564 13.946650 0.000000 0.000000 0.000000 11.677321 37.382570 -21.047325 34.514824 -44.448751 14.477141 -9.349617 -64.522103 -16.518817 0.000000 0.000000 0.000000 -7.125000 0.000000 0.000000 -33.312896 43.737911 -1.184614 0.000000 0.000000 0.000000 -12.421175 -6.218958 40.252175 -77.458877 -59.376247 -49.163468 5.942057 -59.666558 -2.453425 0.000000 0.000000 0.000000 7.125000 0.000000 0.000000 24.352872 27.135487 11.569170
-0.199238 15.646330 0.322421 -184.806359 -4.397784 -157.241603 0.000000 0.000000 0.000000 2.435664 -32.945605 -78.738364 13.127382 18.820348 69.513836 0.718437 4.010507 -17.898090 0.775289 -5.594702 -15.619818 0.000000 0.000000 0.000000 30.160303 25.506815 -11.420030 -5.994495 -14.421013 44.955968 -3.191836 -9.308499 -37.893572 -0.942685 -6.182915 17.316411 -3.508793 1.925508 -2.374190 -3.604363 1.502688 -8.114629 -1.838257 0.485810 -7.171491 -4.142256 -2.465172 -20.362254 3.762692 -4.837910 30.324650 1.230324 -2.552189 13.927222 0.000000 0.000000 0.000000 12.337061 39.966826 -22.633765 36.789017 -46.029722 16.094010 -11.461866 -65.582735 -15.421052 0.000000 0.000000 0.000000 -7.125000 0.000000 0.000000 -34.452449 42.558774 -2.410251 0.000000 0.000000 0.000000 -12.931738 -5.421996 39.609773 -82.796214 -59.770605 -53.767705 6.713765 -62.852962 -2.482005 0.000000 0.000000 0.000000 7.125000 0.000000 0.000000 24.885322 27.080259 11.912343
-0.165119 15.768005 0.061955 -185.547634 -3.477134 -157.459713 0.000000 0.000000 0.000000 1.254927 -32.802743 -78.286296 12.223475 18.475622 66.686995 0.469319 3.902574 -14.840566 1.018821 -6.407245 -17.975484 0.000000 0.000000 0.000000 29.094786 24.107912 -10.453856 -5.729079 -14.159282 43.881995 -2.634301 -7.771354 -34.074473 -0.923996 -6.122668 17.141152 -5.295142 2.688542 -2.195534 -3.992123 2.346474 -8.484491 -1.310922 0.971394 -7.771082 -4.217810 -2.962091 -19.470636 4.142156 -5.823952 30.437352 1.221948 -2.981930 13.853047 0.000000 0.000000 0.000000 12.977561 42.327536 -24.049444 39.134933 -47.527900 17.804874 -13.683937 -66.510252 -14.410681 0.000000 0.000000 0.000000 -7.125000 0.000000 0.000000 -35.679159 41.449686 -3.679884 0.000000 0.000000 0.000000 -13.502348 -4.702941 38.809301 -87.868534 -59.953806 -58.154786 7.692441 -66.273544 -2.489868 0.000000 0.000000 0.000000 7.125000 0.000000 0.000000 25.562875 27.033083 12.339684
-0.137317 15.883423 -0.184434 -185.854623 -2.647060 -157.484095 0.000000 0.000000 0.000000 0.540181 -32.408491 -78.146917 11.368300 18.103235 63.963054 0.280457 3.624648 -11.923157 0.952376 -6.174352 -17.303739 0.000000 0.000000 0.000000 28.284066 22.843289 -9.916792 -5.515861 -13.941222 43.004342 -2.052883 -6.505786 -29.960225 -0.804493 -5.712692 15.956089 -6.536982 3.397134 -2.313688 -4.222322 3.172548 -8.776978 -0.921742 1.428738 -8.127685 -4.381525 -3.387573 -18.885430 4.537962 -6.643931 30.546413 1.265042 -3.335968 13.843841 0.000000 0.000000 0.000000 13.368538 44.363126 -25.067063 41.738162 -49.039762 19.750594 -15.577377 -67.639917 -13.902674 0.000000 0.000000 0.000000 -7.125000 0.000000 0.000000 -36.860042 40.805104 -4.541876 0.000000 0.000000 0.000000 -14.193890 -4.371649 38.105772 -92.413552 -59.956332 -62.089512 8.865524 -69.894638 -2.263732 0.000000 0.000000 0.000000 7.125000 0.000000 0.000000 26.423861 27.185698 12.742705
